# Blender 5.1.2
# www.blender.org
mtllib suzanne_lod2.mtl
o suzanne
v -1.970775 1.399814 4.624174
v -3.022126 1.497056 4.606868
v -2.692391 1.350355 4.698632
v -2.844527 1.504462 4.914669
v -2.390109 1.413701 4.743996
v -2.143608 1.504405 4.913805
v -2.093218 1.622741 4.619369
v -2.772569 1.714605 4.702545
v -2.494062 1.064186 4.900767
v -2.549530 1.973989 3.249686
v -2.168445 1.151497 3.437679
v -2.322718 1.076589 4.851341
v -2.736577 0.928559 4.751408
v -2.339955 0.371682 4.777908
v -2.205921 1.652753 4.906374
v -3.131591 1.536498 4.674721
v -2.494062 1.056373 4.853892
v -2.494062 1.111061 4.846080
v -2.754074 1.651743 4.890049
v -2.219293 1.362845 4.880918
v -2.792839 1.330982 4.881280
v -1.946763 1.476242 4.804101
v -1.599400 1.513352 4.574352
v -3.337203 2.002746 3.868179
v -1.571919 1.651739 3.843464
v -3.348937 1.583380 3.916918
v -1.751585 1.196118 3.895986
v -2.341138 0.783165 4.410971
v -2.877686 0.270870 4.575318
v -3.771501 1.461473 3.622083
v -1.203612 1.455266 3.629233
v -3.245759 1.248293 3.829970
vn -0.8919 -0.1718 0.4184
vn 0.1577 -0.7025 0.6940
vn -0.1523 -0.0264 0.9880
vn 0.1129 0.6081 0.7858
vn 0.8025 -0.1384 0.5803
vn 0.2506 0.8474 0.4681
vn 0.0810 0.1637 0.9832
vn 0.1811 -0.2730 0.9448
vn 0.2378 -0.3550 0.9041
vn 0.8290 0.3278 0.4531
vn -0.6203 -0.5706 0.5382
vn -0.2463 -0.3484 0.9044
vn -0.8963 0.1558 0.4152
vn -0.0233 0.9625 0.2702
vn 0.5461 -0.3862 0.7434
vn 0.0065 0.8002 0.5996
vn -1.0000 0.0007 -0.0040
vn -0.9645 -0.2482 0.0903
vn -0.9908 0.0223 0.1337
vn 0.1841 0.8060 -0.5626
vn 0.4262 0.3737 0.8238
vn 0.5022 -0.7809 -0.3714
vn -0.6622 -0.7312 -0.1638
vn 0.4816 -0.7774 0.4047
vn 0.0842 -0.4919 -0.8666
vn 0.6436 -0.7584 0.1026
vn -0.8726 0.0862 -0.4807
vn -0.6126 -0.6859 -0.3929
vn -0.7841 -0.0458 0.6189
vn 0.9915 -0.1228 -0.0437
vn 0.6359 0.7710 -0.0343
vn -0.5404 0.8221 -0.1794
vn -0.4271 -0.1568 0.8905
vn 0.0056 0.5988 -0.8009
s 1
f 2//1 3//2 4//3
f 4//3 3//2 8//4
f 4//3 8//4 2//1
f 1//5 7//6 6//7
f 20//8 12//9 23//10
f 13//11 21//12 16//13
f 23//10 15//14 22//15
f 23//10 22//15 20//8
f 20//8 15//14 19//16
f 21//12 20//8 19//16
f 9//17 18//18 17//19
f 9//20 18//21 21//12
f 12//9 9//20 21//12
f 12//9 21//12 13//11
f 28//22 29//23 13//11
f 28//22 12//9 14//24
f 28//22 11//25 27//26
f 28//22 27//26 12//9
f 30//27 32//28 26//29
f 31//30 11//25 25//31
f 30//27 24//32 32//28
f 5//33 1//5 6//7
f 6//7 7//6 5//33
f 13//11 32//28 11//25 28//22
f 13//11 29//23 14//24
f 12//9 13//11 14//24
f 9//20 12//9 18//21
f 12//9 20//8 18//21
f 18//21 20//8 21//12
f 14//24 29//23 28//22
f 24//32 19//16 23//10 25//31
f 27//26 25//31 23//10
f 16//13 26//29 32//28
f 25//31 10//34 24//32
f 25//31 11//25 10//34
f 11//25 32//28 24//32 10//34
f 16//13 19//16 24//32
f 15//14 23//10 19//16
f 26//29 16//13 24//32
f 12//9 27//26 23//10
f 16//13 32//28 13//11
f 27//26 31//30 25//31
f 30//27 26//29 24//32
f 31//30 27//26 11//25
