# Blender 5.1.2
# www.blender.org
mtllib suzanne_lod1_uv.mtl
o suzanne_pbr
v 0.466863 0.195097 0.766162
v -0.466863 0.195097 0.766162
v 0.554358 0.044940 0.584279
v -0.554358 0.044940 0.584279
v 0.351563 -0.023438 0.617188
v -0.351563 -0.023438 0.617188
v 0.344117 0.115836 0.794743
v -0.344117 0.115836 0.794743
v 0.244472 0.183498 0.808058
v -0.244472 0.183498 0.808058
v 0.156250 0.054688 0.648438
v -0.156250 0.054688 0.648438
v 0.069017 0.242460 0.662145
v -0.069017 0.242460 0.662145
v 0.294953 0.363987 0.804906
v -0.294953 0.363987 0.804906
v 0.156250 0.437500 0.648438
v -0.156250 0.437500 0.648438
v 0.351563 0.515625 0.617188
v -0.351563 0.515625 0.617188
v 0.432484 0.337393 0.795449
v -0.432484 0.337393 0.795449
v 0.546875 0.437500 0.578125
v -0.546875 0.437500 0.578125
v 0.633637 0.242151 0.566680
v -0.633637 0.242151 0.566680
v -0.000000 0.417279 0.744516
v -0.000000 0.329071 0.830150
v -0.099032 -0.731312 0.728925
v -0.006478 -0.337020 0.757628
v 0.000000 -0.187500 0.796875
v 0.065732 -0.763472 0.733715
v -0.060471 0.425503 0.613644
v 0.086258 0.467536 0.620998
v 0.000000 0.898438 -0.546875
v 0.000000 0.562500 -0.851563
v -0.000000 -0.078117 -0.777908
v 0.000000 -0.382813 -0.351563
v 0.220840 -0.184282 0.531800
v -0.220840 -0.184282 0.531800
v 0.367954 -0.933107 0.527251
v -0.367954 -0.933107 0.527251
v -0.000000 -0.978827 0.599911
v 0.577661 -0.086733 0.540999
v -0.577661 -0.086733 0.540999
v 0.783689 0.113242 0.416992
v -0.783689 0.113242 0.416992
v 0.834783 0.423255 0.589328
v -0.834783 0.423255 0.589328
v 0.251790 0.769013 0.746862
v -0.251790 0.769013 0.746862
v 0.195227 0.301884 0.758799
v -0.195227 0.301884 0.758799
v 0.230333 0.129458 0.757979
v -0.230333 0.129458 0.757979
v 0.373759 0.086983 0.729414
v -0.373759 0.086983 0.729414
v 0.551921 -0.004564 0.630239
v -0.551921 -0.004564 0.630239
v 0.542529 0.213161 0.681297
v -0.542529 0.213161 0.681297
v 0.573262 0.366861 0.686494
v -0.573262 0.366861 0.686494
v 0.299899 0.484315 0.747732
v -0.299899 0.484315 0.747732
v 0.076210 -0.866983 0.699183
v -0.067660 -0.863738 0.683503
v 0.000000 -0.195313 0.750000
v 0.000000 -0.140625 0.742188
v 0.094814 -0.120196 0.795684
v -0.094814 -0.120196 0.795684
v -0.141611 -0.239659 0.729355
v 0.729016 0.388944 0.678526
v -0.729016 0.388944 0.678526
v 0.252177 0.653553 0.851777
v -0.252177 0.653553 0.851777
v 0.138502 -0.240536 0.734220
v 0.271874 -0.884281 0.652178
v -0.271874 -0.884281 0.652178
v -0.000000 0.064816 0.732574
v 0.124826 -0.227263 0.812515
v -0.104201 -0.225123 0.822212
v 0.093092 -0.793310 0.646568
v 0.285071 0.399468 0.776473
v -0.285071 0.399468 0.776473
v 0.412084 0.390727 0.751665
v -0.412084 0.390727 0.751665
v 0.460036 0.118221 0.705621
v -0.460036 0.118221 0.705621
v 0.551809 0.287858 0.675569
v -0.551809 0.287858 0.675569
v 0.260583 0.709343 0.607090
v -0.260583 0.709343 0.607090
v 0.464098 0.520895 0.481216
v -0.464098 0.520895 0.481216
v 0.704474 0.404566 0.307972
v -0.704474 0.404566 0.307972
v 0.000000 0.898438 0.289063
v 0.000000 0.984375 -0.078125
v 0.040557 -0.796825 0.350121
v -0.000000 -0.487724 0.299484
v 0.853821 0.342353 -0.186064
v -0.853821 0.342353 -0.186064
v 0.822768 0.331336 -0.409609
v -0.822768 0.331336 -0.409609
v 0.460938 0.437500 -0.703125
v -0.460938 0.437500 -0.703125
v 0.659901 -0.119391 -0.121426
v -0.659901 -0.119391 -0.121426
v 0.742935 -0.096205 -0.329129
v -0.742935 -0.096205 -0.329129
v 0.416138 -0.056313 -0.564653
v -0.416138 -0.056313 -0.564653
v 0.196827 -0.399766 0.275526
v -0.196827 -0.399766 0.275526
v 0.328407 -0.910051 0.403137
v -0.323266 -0.935813 0.414335
v 0.247368 -0.507892 0.386600
v -0.247368 -0.507892 0.386600
v 0.380830 -0.247215 -0.201983
v -0.380830 -0.247215 -0.201983
v 0.453125 0.867188 -0.382813
v -0.453125 0.867188 -0.382813
v 0.468039 0.900587 0.151109
v -0.468039 0.900587 0.151109
v 0.778416 0.571313 0.104449
v -0.778416 0.571313 0.104449
v 0.781262 0.611360 -0.336433
v -0.781262 0.611360 -0.336433
v 0.938001 0.419518 -0.243040
v -0.938001 0.419518 -0.243040
v 0.812789 -0.105258 -0.123260
v -0.812789 -0.105258 -0.123260
v 1.044078 -0.075478 -0.314684
v -1.044078 -0.075478 -0.314684
v 1.317001 0.071596 -0.487160
v -1.317001 0.071596 -0.487160
v 1.362992 0.312056 -0.443765
v -1.362992 0.312056 -0.443765
v 1.209045 0.489463 -0.397220
v -1.209045 0.489463 -0.397220
v 1.233697 0.245938 -0.434686
v -1.233697 0.245938 -0.434686
v 1.194671 0.100783 -0.438242
v -1.194671 0.100783 -0.438242
v 0.957320 0.302066 -0.322260
v -0.957320 0.302066 -0.322260
v 0.856900 0.001803 -0.300854
v -0.856900 0.001803 -0.300854
v 1.036152 0.006784 -0.405450
v -1.036152 0.006784 -0.405450
v 1.154985 0.352190 -0.458766
v -1.154985 0.352190 -0.458766
v 0.790561 0.101955 -0.306725
v -0.790561 0.101955 -0.306725
v 0.711848 -0.001168 -0.175937
v -0.711848 -0.001168 -0.175937
v 1.068135 0.235193 -0.383880
v -1.068135 0.235193 -0.383880
v 1.226294 0.483535 -0.548223
v -1.226294 0.483535 -0.548223
v 1.039063 -0.085938 -0.492188
v -1.039063 -0.085938 -0.492188
vn 0.1497 -0.5752 0.8042
vn 0.5162 -0.3650 0.7748
vn 0.4192 0.3442 0.8401
vn -0.4254 0.3457 0.8364
vn -0.5354 -0.0763 0.8411
vn -0.1315 -0.5845 0.8006
vn -0.4373 -0.2761 0.8559
vn 0.2852 -0.3020 0.9096
vn -0.2693 0.4299 0.8618
vn 0.2636 0.4029 0.8765
vn 0.3316 0.6665 -0.6676
vn 0.9770 0.1415 0.1598
vn 0.8600 -0.5103 -0.0010
vn -0.8377 -0.5456 -0.0249
vn -0.9116 0.0855 0.4020
vn -0.3302 0.6772 -0.6576
vn -0.2541 -0.7817 -0.5696
vn -0.4932 -0.8137 0.3077
vn -0.5449 -0.3280 0.7717
vn 0.4953 -0.8127 0.3069
vn 0.0635 -0.8482 -0.5259
vn 0.5364 -0.3850 0.7510
vn -0.1720 0.6757 0.7168
vn -0.9154 -0.0175 0.4022
vn -0.2421 0.3501 -0.9049
vn 0.9131 0.0018 0.4077
vn 0.1616 0.6438 0.7479
vn 0.2497 0.3559 -0.9006
vn -0.0060 -0.7611 -0.6487
vn -0.0083 -0.7550 -0.6556
vn -0.2868 0.7758 0.5620
vn 0.2471 0.7718 0.5859
vn -0.5155 -0.2098 0.8308
vn 0.5485 -0.2085 0.8097
vn -0.3914 -0.0167 0.9201
vn -0.0098 -0.0784 0.9969
vn -0.2547 0.1718 0.9516
vn 0.1133 -0.0060 0.9935
vn 0.3937 0.0483 0.9180
vn 0.0550 -0.2920 0.9548
vn -0.0392 0.0207 0.9990
vn 0.0638 -0.0577 0.9963
vn -0.0937 0.2703 0.9582
vn 0.0892 0.2739 0.9576
vn -0.3417 0.4912 0.8012
vn 0.3508 0.5420 0.7637
vn -0.5455 -0.2050 0.8127
vn -0.4981 -0.3425 0.7966
vn 0.5910 -0.2833 0.7552
vn 0.6140 -0.2569 0.7463
vn -0.9271 0.0207 0.3742
vn 0.7922 -0.0364 0.6092
vn -0.4656 -0.5453 -0.6971
vn -0.4200 -0.9018 -0.1022
vn 0.4595 -0.8817 -0.1067
vn 0.4209 -0.5601 -0.7136
vn -0.4465 0.1972 -0.8728
vn 0.4473 0.1979 -0.8722
vn -0.6211 -0.7574 -0.2013
vn -0.7173 -0.5522 0.4249
vn -0.9435 -0.3254 0.0633
vn 0.9379 -0.3430 0.0524
vn 0.7499 -0.4596 0.4757
vn 0.6172 -0.7568 -0.2151
vn -0.7828 0.5343 -0.3189
vn 0.7857 0.5335 -0.3132
vn -0.8808 0.3552 0.3130
vn 0.8559 0.3864 0.3436
vn -0.8387 0.5075 0.1974
vn 0.8408 0.5022 0.2022
vn -0.2834 0.9589 0.0139
vn 0.1169 0.9856 0.1222
vn -0.3463 0.8827 0.3176
vn 0.1098 0.7988 -0.5915
vn -0.1792 0.8060 -0.5642
vn 0.4523 0.8894 -0.0666
vn -0.5002 0.8016 0.3274
vn -0.0254 0.7503 0.6606
vn 0.5001 0.7997 0.3322
vn -0.4274 0.8199 -0.3810
vn 0.4168 0.8262 -0.3791
vn -0.0000 0.8007 -0.5990
vn 0.0004 0.3034 -0.9529
vn -0.0000 1.0000 0.0059
vn 0.0189 -0.4769 -0.8788
vn 0.0019 -0.9388 -0.3444
vn 0.0425 -0.6674 -0.7435
vn -0.4782 -0.8782 0.0046
vn 0.5060 -0.8625 0.0028
vn -0.8179 0.0172 -0.5751
vn -0.8283 -0.5417 0.1432
vn 0.8037 -0.5857 0.1049
vn 0.7814 -0.0410 -0.6226
vn 0.6008 -0.4847 -0.6357
vn 0.0289 -0.2149 -0.9762
vn -0.5773 -0.5189 -0.6304
vn 0.0705 -0.9607 0.2685
vn -0.8052 0.4616 0.3723
vn 0.7992 0.4983 0.3361
vn 0.1624 0.9354 0.3140
vn -0.0994 0.9455 0.3102
vn 0.0226 0.9242 0.3812
vn 0.5716 0.0950 0.8150
vn -0.1538 -0.1359 0.9787
vn -0.6028 -0.1234 0.7883
vn 0.1109 -0.1653 0.9800
vn -0.6131 0.0085 0.7900
vn 0.5629 -0.2074 0.8001
vn -0.1864 0.5005 0.8454
vn 0.1864 0.5005 0.8454
vn -0.1406 -0.0845 0.9865
vn -0.2154 -0.1980 0.9562
vn 0.3997 0.3429 0.8501
vn 0.2125 -0.1925 0.9580
vn 0.1300 -0.0937 0.9871
vn -0.2808 0.4648 0.8397
vn -0.4881 -0.4413 0.7530
vn -0.5251 -0.2082 0.8252
vn 0.5024 -0.4673 0.7274
vn 0.5251 -0.2082 0.8252
vn -0.0245 -0.8083 0.5882
vn 0.0382 -0.7968 0.6031
vn -0.1154 -0.1912 0.9747
vn -0.5787 -0.2788 0.7664
vn -0.2239 -0.0950 0.9700
vn -0.0756 -0.4696 0.8796
vn -0.1235 -0.3695 0.9210
vn -0.8704 -0.0444 0.4904
vn -0.1697 -0.0070 0.9855
vn 0.2300 0.1354 0.9637
vn 0.8473 -0.0271 0.5305
vn -0.0000 0.3434 0.9392
vn 0.0332 0.0543 0.9980
vn -0.4263 -0.0979 0.8993
vn -0.0056 -0.3110 0.9504
vn 0.7526 -0.2442 0.6115
vn -0.2795 0.9541 0.1071
vn -0.0000 0.0468 -0.9989
vn -0.0000 0.9419 0.3360
vn -0.0000 -0.7452 0.6668
vn -0.5266 -0.3827 0.7591
vn 0.5391 -0.3897 0.7467
vn 0.0498 -0.0935 0.9944
vn -0.0207 -0.1298 0.9913
vn 0.0646 -0.1375 0.9884
vn -0.4687 0.0534 0.8817
vn 0.4487 0.0415 0.8927
vn 0.1120 0.2870 0.9514
vn -0.0862 0.2535 0.9635
vn -0.7854 0.0184 0.6187
vn 0.7870 0.0093 0.6169
vn -0.6852 0.4559 0.5681
vn 0.6852 0.4559 0.5680
vn -0.2102 0.7723 0.5995
vn 0.2102 0.7723 0.5994
vn 0.3874 0.6298 0.6732
vn -0.3874 0.6298 0.6732
vn 0.6020 0.0149 0.7983
vn -0.6405 -0.0647 0.7652
vn 0.4533 -0.5879 0.6700
vn -0.4533 -0.5879 0.6700
vn -0.1810 -0.7666 0.6161
vn 0.1810 -0.7666 0.6161
vn -0.5830 -0.4902 0.6479
vn 0.5819 -0.5006 0.6409
vt 0.323754 0.774933
vt 0.333361 0.792952
vt 0.322157 0.809164
vt 0.058620 0.807892
vt 0.048146 0.791199
vt 0.058543 0.773624
vt 0.305594 0.778951
vt 0.076507 0.778443
vt 0.302859 0.804894
vt 0.078088 0.804483
vt 0.765989 0.783454
vt 0.753392 0.822146
vt 0.703563 0.809755
vt 0.774378 0.642737
vt 0.723310 0.650938
vt 0.711780 0.615207
vt 0.843617 0.534552
vt 0.897469 0.500666
vt 0.902318 0.546395
vt 0.572425 0.679855
vt 0.628012 0.707047
vt 0.572425 0.724426
vt 0.691146 0.542174
vt 0.687856 0.503196
vt 0.737933 0.531167
vt 0.772837 0.655221
vt 0.789311 0.695804
vt 0.734929 0.690845
vt 0.809389 0.599417
vt 0.667750 0.767676
vt 0.677416 0.609041
vt 0.795802 0.787304
vt 0.843059 0.610497
vt 0.635588 0.780626
vt 0.638482 0.557383
vt 0.648648 0.582594
vt 0.628080 0.593165
vt 0.526062 0.870837
vt 0.505205 0.849690
vt 0.544697 0.854844
vt 0.604389 0.573451
vt 0.536229 0.824348
vt 0.602179 0.542940
vt 0.508439 0.807852
vt 0.614591 0.500342
vt 0.461671 0.798477
vt 0.633966 0.498866
vt 0.661958 0.539448
vt 0.475627 0.865105
vt 0.450439 0.815843
vt 0.460712 0.899168
vt 0.424354 0.868344
vt 0.618696 0.458745
vt 0.420895 0.780777
vt 0.583582 0.472955
vt 0.451798 0.755414
vt 0.713425 0.237886
vt 0.691648 0.243922
vt 0.757685 0.260975
vt 0.330107 0.585199
vt 0.264069 0.602253
vt 0.285847 0.608289
vt 0.583867 0.423087
vt 0.405805 0.730353
vt 0.542057 0.908111
vt 0.577969 0.529527
vt 0.507748 0.778585
vt 0.587548 0.588270
vt 0.557294 0.815416
vt 0.629961 0.623919
vt 0.572425 0.868524
vt 0.682803 0.320348
vt 0.647687 0.266291
vt 0.706402 0.288928
vt 0.220108 0.579883
vt 0.278823 0.557246
vt 0.255225 0.525826
vt 0.743323 0.291649
vt 0.752264 0.346660
vt 0.324686 0.499513
vt 0.315745 0.554524
vt 0.576353 0.187462
vt 0.596909 0.118151
vt 0.748905 0.146532
vt 0.321327 0.699644
vt 0.169327 0.728023
vt 0.148772 0.658710
vt 0.783228 0.288251
vt 0.355650 0.557923
vt 0.806984 0.235451
vt 0.379406 0.610723
vt 0.816648 0.182277
vt 0.389071 0.663898
vt 0.882832 0.173919
vt 0.979337 0.192751
vt 0.974643 0.218739
vt 0.936294 0.144935
vt 0.541305 0.654062
vt 0.508719 0.701239
vt 0.455256 0.672255
vt 0.869241 0.269725
vt 0.946138 0.286262
vt 0.518561 0.559910
vt 0.441664 0.576449
vt 0.820842 0.328587
vt 0.393264 0.517587
vt 0.840465 0.403536
vt 0.762603 0.423087
vt 0.412887 0.442637
vt 0.335024 0.423087
vt 0.909248 0.345901
vt 0.481670 0.500271
vt 0.653653 0.387254
vt 0.226075 0.458919
vt 0.588792 0.317539
vt 0.534377 0.213812
vt 0.161214 0.528634
vt 0.106798 0.632360
vt 0.687679 0.119691
vt 0.260099 0.726485
vt 0.545986 0.160881
vt 0.470650 0.128674
vt 0.043067 0.717494
vt 0.118405 0.685290
vt 0.050941 0.700754
vt 0.056309 0.654135
vt 0.477690 0.147165
vt 0.427581 0.175095
vt 0.000000 0.671069
vt 0.017903 0.661268
vt 0.480167 0.198327
vt 0.820662 0.118899
vt 0.393086 0.727277
vt 0.946572 0.120496
vt 0.518999 0.725678
vt 0.999543 0.174856
vt 0.571440 0.671764
vt 0.563710 0.649220
vt 0.313849 0.342293
vt 0.327438 0.348637
vt 0.298406 0.341812
vt 0.328157 0.074933
vt 0.314485 0.081259
vt 0.298977 0.081689
vt 0.335507 0.313919
vt 0.336115 0.109831
vt 0.317459 0.266523
vt 0.355092 0.291467
vt 0.339166 0.286633
vt 0.355670 0.132477
vt 0.317776 0.157309
vt 0.339657 0.137243
vt 0.257759 0.345012
vt 0.278558 0.324279
vt 0.258193 0.078348
vt 0.278994 0.099214
vt 0.271016 0.306354
vt 0.271365 0.117169
vt 0.036696 0.222763
vt 0.045671 0.203872
vt 0.058436 0.229311
vt 0.058159 0.200902
vt 0.035618 0.199166
vt 0.166015 0.246539
vt 0.194461 0.232011
vt 0.164338 0.312160
vt 0.164446 0.111110
vt 0.194500 0.191435
vt 0.163096 0.180355
vt 0.203534 0.211734
vt 0.258007 0.211812
vt 0.176841 0.226441
vt 0.149389 0.213170
vt 0.176216 0.193975
vt 0.186479 0.211718
vt 0.427853 0.115821
vt 0.427581 0.104121
vt 0.441185 0.104121
vt 0.028128 0.257434
vt 0.028029 0.166046
vt 0.004203 0.211792
vt 0.345625 0.209241
vt 0.278669 0.273669
vt 0.278923 0.149967
vt 0.341409 0.380232
vt 0.342305 0.043231
vt 0.393031 0.281305
vt 0.393733 0.142925
vt 0.370092 0.211437
vt 0.423933 0.286061
vt 0.424864 0.138349
vt 0.348982 0.412879
vt 0.350009 0.010437
vt 0.278009 0.423087
vt 0.278714 0.000000
vt 0.231836 0.366281
vt 0.232219 0.056953
vt 0.009643 0.281960
vt 0.009470 0.141523
vt -0.000130 0.817401
vt 0.380427 0.821272
vt 0.033121 0.852785
vt 0.345638 0.855146
vt 0.083391 0.855019
vt 0.295318 0.855146
vt 0.123146 0.821929
vt 0.257070 0.820323
vt 0.127636 0.768176
vt 0.254972 0.766422
vt 0.089008 0.730353
vt 0.295241 0.730353
vt 0.035422 0.733227
vt 0.348646 0.735604
vt -0.000100 0.770038
vt 0.382499 0.773955
s 1
usemtl Material_ray.png
f 7/1/1 1/2/2 21/3/3
f 22/4/4 2/5/5 8/6/6
f 21/3/3 9/7/7 7/1/1
f 8/6/6 10/8/8 22/4/4
f 21/3/3 15/9/9 9/7/7
f 10/8/8 16/10/10 22/4/4
f 160/11/11 138/12/12 136/13/13
f 137/14/14 139/15/15 161/16/16
f 111/17/17 109/18/18 133/19/19
f 108/20/20 110/21/21 132/22/22
f 131/23/23 103/24/24 105/25/25
f 102/26/26 130/27/27 104/28/28
f 137/14/14 161/16/16 163/29/29
f 160/11/11 136/13/13 162/30/30
f 111/17/17 163/29/29 105/25/25
f 163/29/29 161/16/16 105/25/25
f 160/11/11 162/30/30 104/28/28
f 162/30/30 110/21/21 104/28/28
f 161/16/16 131/23/23 105/25/25
f 130/27/27 160/11/11 104/28/28
f 141/31/31 131/23/23 161/16/16
f 130/27/27 140/32/32 160/11/11
f 139/15/15 141/31/31 161/16/16
f 140/32/32 138/12/12 160/11/11
f 163/29/29 135/33/33 137/14/14
f 136/13/13 134/34/34 162/30/30
f 111/17/17 133/19/19 135/33/33
f 111/17/17 135/33/33 163/29/29
f 134/34/34 132/22/22 110/21/21
f 134/34/34 110/21/21 162/30/30
f 159/35/35 153/36/36 143/37/37
f 152/38/38 158/39/39 142/40/40
f 159/35/35 143/37/37 145/41/41
f 142/40/40 158/39/39 144/42/42
f 159/35/35 145/41/41 151/43/43
f 144/42/42 158/39/39 150/44/44
f 149/45/45 159/35/35 151/43/43
f 150/44/44 158/39/39 148/46/46
f 149/45/45 155/47/47 159/35/35
f 155/47/47 147/48/48 159/35/35
f 146/49/49 154/50/50 158/39/39
f 154/50/50 148/46/46 158/39/39
f 159/35/35 147/48/48 153/36/36
f 152/38/38 146/49/49 158/39/39
f 103/24/24 131/23/23 147/48/48
f 130/51/27 102/52/26 146/49/49
f 157/53/51 103/24/24 155/47/47
f 103/24/24 147/48/48 155/47/47
f 146/49/49 102/52/26 154/50/50
f 102/52/26 156/54/52 154/50/50
f 149/45/45 157/53/51 155/47/47
f 154/50/50 156/54/52 148/46/46
f 149/45/45 133/55/19 157/53/51
f 132/56/22 148/46/46 156/54/52
f 157/57/51 109/58/18 103/59/24
f 102/60/26 108/61/20 156/62/52
f 133/55/19 109/63/18 157/53/51
f 108/64/20 132/56/22 156/54/52
f 153/36/36 147/48/48 141/31/31
f 147/48/48 131/23/23 141/31/31
f 130/51/27 146/49/49 140/65/32
f 146/49/49 152/38/38 140/65/32
f 153/36/36 141/31/31 143/37/37
f 140/65/32 152/38/38 142/40/40
f 151/43/43 145/41/41 135/66/33
f 144/42/42 150/44/44 134/67/34
f 149/45/45 151/43/43 135/66/33
f 149/45/45 135/66/33 133/55/19
f 134/67/34 150/44/44 148/46/46
f 134/67/34 148/46/46 132/56/22
f 145/41/41 137/68/14 135/66/33
f 136/69/13 144/42/42 134/67/34
f 145/41/41 143/37/37 137/68/14
f 143/37/37 139/70/15 137/68/14
f 138/71/12 142/40/40 136/69/13
f 142/40/40 144/42/42 136/69/13
f 143/37/37 141/31/31 139/70/15
f 140/65/32 142/40/40 138/71/12
f 113/72/53 121/73/54 111/74/17
f 121/73/54 109/58/18 111/74/17
f 108/61/20 120/75/55 110/76/21
f 120/75/55 112/77/56 110/76/21
f 105/78/25 107/79/57 113/72/53
f 106/80/58 104/81/28 112/77/56
f 113/72/53 111/74/17 105/78/25
f 110/76/21 112/77/56 104/81/28
f 115/82/59 40/83/60 47/84/61
f 115/82/59 47/84/61 121/73/54
f 46/85/62 39/86/63 114/87/64
f 46/85/62 114/87/64 120/75/55
f 121/73/54 47/84/61 109/58/18
f 46/85/62 120/75/55 108/61/20
f 129/88/65 105/78/25 103/59/24
f 104/81/28 128/89/66 102/60/26
f 129/88/65 103/59/24 127/90/67
f 102/60/26 128/89/66 126/91/68
f 127/90/67 103/59/24 97/92/69
f 102/60/26 126/91/68 96/93/70
f 103/59/24 47/84/61 97/92/69
f 46/85/62 102/60/26 96/93/70
f 95/94/71 33/95/72 34/96/73
f 93/97/74 33/95/72 95/94/71
f 34/98/73 92/99/75 94/100/76
f 125/101/77 95/94/71 98/102/78
f 95/94/71 34/96/73 98/102/78
f 34/98/73 94/100/76 98/103/78
f 94/100/76 124/104/79 98/103/78
f 97/92/69 95/94/71 125/101/77
f 97/92/69 125/101/77 127/90/67
f 124/104/79 94/100/76 96/93/70
f 124/104/79 96/93/70 126/91/68
f 127/90/67 125/101/77 129/88/65
f 124/104/79 126/91/68 128/89/66
f 129/88/65 125/101/77 123/105/80
f 122/106/81 124/104/79 128/89/66
f 129/88/65 123/105/80 107/79/57
f 129/88/65 107/79/57 105/78/25
f 106/80/58 122/106/81 128/89/66
f 106/80/58 128/89/66 104/81/28
f 107/79/57 123/105/80 35/107/82
f 107/79/57 35/107/82 36/108/83
f 35/109/82 122/106/81 106/80/58
f 35/109/82 106/80/58 36/110/83
f 123/105/80 125/101/77 99/111/84
f 123/105/80 99/111/84 35/107/82
f 99/112/84 124/104/79 122/106/81
f 99/112/84 122/106/81 35/109/82
f 125/101/77 98/102/78 99/111/84
f 98/103/78 124/104/79 99/112/84
f 113/72/53 107/79/57 37/113/85
f 107/79/57 36/108/83 37/113/85
f 36/110/83 106/80/58 37/114/85
f 106/80/58 112/77/56 37/114/85
f 109/58/18 47/84/61 103/59/24
f 46/85/62 108/61/20 102/60/26
f 115/82/59 121/73/54 38/115/86
f 115/82/59 38/115/86 101/116/87
f 38/117/86 120/75/55 114/87/64
f 38/117/86 114/87/64 101/118/87
f 121/73/54 113/72/53 38/115/86
f 113/72/53 37/113/85 38/115/86
f 37/114/85 112/77/56 38/117/86
f 112/77/56 120/75/55 38/117/86
f 47/84/61 40/83/60 45/119/88
f 39/86/63 46/85/62 44/120/89
f 119/121/90 42/122/91 40/83/60
f 119/121/90 40/83/60 115/82/59
f 39/86/63 41/123/92 118/124/93
f 39/86/63 118/124/93 114/87/64
f 116/125/94 100/126/95 118/124/93
f 117/127/96 42/122/91 119/121/90
f 41/123/92 116/125/94 118/124/93
f 117/127/96 43/128/97 42/122/91
f 41/123/92 43/129/97 117/130/96
f 41/123/92 117/130/96 116/125/94
f 117/130/96 100/126/95 116/125/94
f 119/121/90 101/116/87 117/127/96
f 101/116/87 100/131/95 117/127/96
f 101/118/87 118/124/93 100/126/95
f 115/82/59 101/116/87 119/121/90
f 101/118/87 114/87/64 118/124/93
f 47/84/61 49/132/98 97/92/69
f 48/133/99 46/85/62 96/93/70
f 97/92/69 49/132/98 95/94/71
f 49/132/98 51/134/100 95/94/71
f 50/135/101 48/133/99 94/100/76
f 48/133/99 96/93/70 94/100/76
f 95/94/71 51/134/100 93/97/74
f 50/135/101 94/100/76 92/99/75
f 93/97/74 51/134/100 27/136/102
f 93/97/74 27/136/102 33/95/72
f 27/137/102 50/135/101 92/99/75
f 27/137/102 92/99/75 34/98/73
f 27/137/102 34/98/73 33/138/72
f 91/139/103 63/140/104 61/141/105
f 62/142/106 90/143/107 60/144/108
f 87/145/109 63/140/104 91/139/103
f 62/142/106 86/146/110 90/143/107
f 53/147/111 65/148/112 85/149/113
f 64/150/114 52/151/115 84/152/116
f 85/149/113 65/148/112 87/145/109
f 64/150/114 84/152/116 86/146/110
f 87/145/109 65/148/112 63/140/104
f 64/150/114 86/146/110 62/142/106
f 61/141/105 59/153/117 89/154/118
f 58/155/119 60/144/108 88/156/120
f 89/154/118 59/153/117 57/157/121
f 56/158/122 58/155/119 88/156/120
f 67/159/123 83/160/124 29/161/125
f 83/160/124 32/162/126 29/161/125
f 66/163/127 32/162/126 83/160/124
f 66/163/127 83/160/124 67/159/123
f 72/164/128 71/165/129 40/166/60
f 39/167/63 70/168/130 77/169/131
f 71/165/129 69/170/132 80/171/133
f 69/170/132 70/168/130 80/171/133
f 82/172/134 30/173/135 81/174/136
f 82/172/134 81/174/136 70/168/130
f 71/165/129 82/172/134 31/175/137
f 31/175/137 82/172/134 70/168/130
f 82/172/134 72/164/128 30/173/135
f 77/169/131 81/174/136 30/173/135
f 71/165/129 31/175/137 69/170/132
f 31/176/138 68/177/139 69/178/140
f 31/175/137 70/168/130 69/170/132
f 82/172/134 71/165/129 72/164/128
f 70/168/130 81/174/136 77/169/131
f 32/162/126 77/169/131 29/161/125
f 77/169/131 30/173/135 29/161/125
f 29/161/125 30/173/135 72/164/128
f 29/161/125 72/164/128 79/179/141
f 77/169/131 32/162/126 78/180/142
f 67/159/123 29/161/125 79/179/141
f 32/162/126 66/163/127 78/180/142
f 43/181/97 67/159/123 79/179/141
f 66/163/127 67/159/123 43/181/97
f 66/163/127 43/181/97 78/180/142
f 80/171/133 28/182/143 53/147/111
f 80/171/133 53/147/111 55/183/144
f 52/151/115 28/182/143 80/171/133
f 52/151/115 80/171/133 54/184/145
f 80/171/133 55/183/144 71/165/129
f 54/184/145 80/171/133 70/168/130
f 59/153/117 71/165/129 55/183/144
f 59/153/117 55/183/144 57/157/121
f 54/184/145 70/168/130 58/155/119
f 54/184/145 58/155/119 56/158/122
f 74/185/146 59/153/117 63/140/104
f 59/153/117 61/141/105 63/140/104
f 60/144/108 58/155/119 62/142/106
f 58/155/119 73/186/147 62/142/106
f 76/187/148 74/185/146 65/148/112
f 74/185/146 63/140/104 65/148/112
f 62/142/106 73/186/147 64/150/114
f 73/186/147 75/188/149 64/150/114
f 76/187/148 65/148/112 28/182/143
f 65/148/112 53/147/111 28/182/143
f 52/151/115 64/150/114 28/182/143
f 64/150/114 75/188/149 28/182/143
f 28/182/143 27/189/102 76/187/148
f 27/189/102 51/190/100 76/187/148
f 50/191/101 27/189/102 75/188/149
f 27/189/102 28/182/143 75/188/149
f 76/187/148 51/190/100 74/185/146
f 51/190/100 49/192/98 74/185/146
f 48/193/99 50/191/101 73/186/147
f 50/191/101 75/188/149 73/186/147
f 74/185/146 49/192/98 59/153/117
f 49/192/98 47/194/61 59/153/117
f 46/195/62 48/193/99 58/155/119
f 48/193/99 73/186/147 58/155/119
f 59/153/117 47/194/61 45/196/88
f 44/197/89 46/195/62 58/155/119
f 59/153/117 45/196/88 40/166/60
f 59/153/117 40/166/60 71/165/129
f 39/167/63 44/197/89 58/155/119
f 39/167/63 58/155/119 70/168/130
f 79/179/141 72/164/128 40/166/60
f 79/179/141 40/166/60 42/198/91
f 39/167/63 77/169/131 78/180/142
f 39/167/63 78/180/142 41/199/92
f 79/179/141 42/198/91 43/181/97
f 41/199/92 78/180/142 43/181/97
f 26/200/150 2/5/5 22/4/4
f 1/2/2 25/201/151 21/3/3
f 26/200/150 22/4/4 24/202/152
f 21/3/3 25/201/151 23/203/153
f 24/202/152 22/4/4 20/204/154
f 22/4/4 16/10/10 20/204/154
f 15/9/9 21/3/3 19/205/155
f 21/3/3 23/203/153 19/205/155
f 20/204/154 16/10/10 18/206/156
f 15/9/9 19/205/155 17/207/157
f 18/206/156 16/10/10 14/208/158
f 15/9/9 17/207/157 13/209/159
f 16/10/10 10/8/8 14/208/158
f 9/7/7 15/9/9 13/209/159
f 14/208/158 10/8/8 12/210/160
f 9/7/7 13/209/159 11/211/161
f 12/210/160 10/8/8 8/6/6
f 12/210/160 8/6/6 6/212/162
f 7/1/1 9/7/7 11/211/161
f 7/1/1 11/211/161 5/213/163
f 8/6/6 2/5/5 4/214/164
f 1/2/2 7/1/1 3/215/165
f 6/212/162 8/6/6 4/214/164
f 3/215/165 7/1/1 5/213/163
f 4/214/164 2/5/5 26/200/150
f 1/2/2 3/215/165 25/201/151
