# Blender 5.1.2
# www.blender.org
mtllib suzanne_lod1.mtl
o suzanne
v -2.027328 1.446427 4.869999
v -2.961593 1.447461 4.870006
v -1.939479 1.296170 4.688415
v -3.048645 1.296170 4.688415
v -2.142500 1.228248 4.721080
v -2.845625 1.228248 4.721080
v -2.150725 1.367383 4.899148
v -2.812974 1.374096 4.919014
v -2.251513 1.436071 4.913134
v -2.736248 1.449627 4.911580
v -2.337812 1.306373 4.752330
v -2.650312 1.306373 4.752330
v -2.428566 1.493215 4.768306
v -2.560025 1.492812 4.767940
v -2.233337 1.581372 4.912871
v -2.755089 1.581966 4.913032
v -2.337812 1.689186 4.752330
v -2.650312 1.689186 4.752330
v -2.142500 1.767311 4.721080
v -2.845625 1.767311 4.721080
v -2.094631 1.618994 4.900301
v -2.897432 1.621680 4.888015
v -1.947187 1.689186 4.682017
v -3.040937 1.689186 4.682017
v -1.860407 1.493799 4.670580
v -3.127611 1.493721 4.670540
v -2.494524 1.673306 4.847795
v -2.500251 1.577302 4.931448
v -2.593121 0.427819 4.821003
v -2.502849 0.914569 4.860169
v -2.494062 1.064186 4.900767
v -2.428006 0.492082 4.839000
v -2.428914 1.688079 4.720315
v -2.590582 1.726951 4.717701
v -2.494062 2.150123 3.557017
v -2.380819 1.751619 3.222912
v -2.505681 1.176526 3.324532
v -2.494062 0.868873 3.752330
v -2.264326 1.047884 4.646159
v -2.721360 1.047933 4.641302
v -2.124510 0.324746 4.628563
v -2.863565 0.317627 4.628190
v -2.478169 0.261194 4.684859
v -1.871455 1.191443 4.658884
v -3.087104 1.175504 4.634997
v -1.699808 1.398471 4.525521
v -3.296038 1.409410 4.526737
v -1.652210 1.667762 4.676682
v -3.346919 1.672470 4.692281
v -2.242260 2.020133 4.848786
v -2.745711 2.020406 4.850350
v -2.294885 1.554595 4.865592
v -2.680463 1.710476 4.885909
v -2.057988 1.232314 4.769484
v -3.074320 1.281389 4.737962
v -1.950298 1.463241 4.782481
v -1.922277 1.616995 4.792633
v -3.053921 1.639470 4.796653
v -2.193037 1.737162 4.848786
v -2.421749 0.380795 4.800084
v -2.494062 1.056373 4.853892
v -2.494062 1.111061 4.846080
v -2.396341 1.128825 4.902675
v -2.605470 1.124683 4.898549
v -2.354549 1.011396 4.838129
v -2.628687 1.006394 4.837704
v -1.792202 1.658050 4.805768
v -3.227908 1.632811 4.784808
v -2.241956 1.907896 4.954306
v -2.741986 1.900761 4.958308
v -2.222447 0.368445 4.756947
v -2.765915 0.367859 4.757566
v -2.492779 1.295726 4.837934
v -2.368376 1.026817 4.917984
v -2.619855 1.026007 4.917512
v -2.521900 1.089375 4.926767
v -2.398495 0.455716 4.746422
v -2.571279 0.428905 4.739341
v -2.292400 1.369855 4.867840
v -2.694551 1.370661 4.866283
v -2.113145 1.647253 4.872005
v -2.907108 1.640750 4.855999
v -3.041523 1.499645 4.798666
v -2.697889 1.564453 4.868247
v -2.225640 1.650326 4.863429
v -2.255469 1.385794 4.869119
v -2.733365 1.387727 4.870403
v -2.115066 1.334708 4.827353
v -2.871756 1.335092 4.828062
v -2.033125 1.368873 4.807017
v -2.955000 1.368873 4.807017
v -1.942233 1.539897 4.779339
v -3.025312 1.587623 4.783580
v -2.777563 1.650235 4.871229
v -2.233663 1.960414 4.710840
v -2.755601 1.960621 4.709694
v -2.020942 1.772472 4.573203
v -2.963304 1.773883 4.574493
v -1.776610 1.653151 4.409597
v -1.894136 1.247908 4.535398
v -3.077542 1.235547 4.534828
v -2.494062 2.150123 4.392955
v -2.494062 2.236061 4.025767
v -2.525331 0.305144 4.502945
v -1.630978 1.551484 4.097968
v -3.350347 1.538303 4.104991
v -1.661619 1.613234 3.686673
v -3.321986 1.609746 3.688035
v -2.955000 1.689186 3.400767
v -1.819909 1.141800 3.964428
v -3.169749 1.148624 3.992675
v -3.026981 1.253097 3.598543
v -2.014846 1.244039 3.558909
v -2.299284 0.840176 4.403795
v -2.708965 0.837760 4.450319
v -2.168301 0.346736 4.498066
v -2.819229 0.344972 4.496916
v -2.494365 0.748763 4.412549
v -2.848474 1.029672 3.657868
v -2.040937 2.118873 3.721080
v -2.947187 2.118873 3.721080
v -2.023990 2.153864 4.246680
v -2.973798 2.152522 4.220478
v -3.205520 1.650574 4.405357
v -1.718896 1.823540 4.216246
v -3.269228 1.823540 4.216246
v -1.702120 1.850911 3.785060
v -3.290348 1.846247 3.786388
v -1.649611 1.544361 3.914770
v -2.103870 1.007931 3.915761
v -2.912477 1.036021 3.968163
v -1.560274 1.699043 3.839901
v -3.418425 1.690342 3.847684
v -1.676025 1.150412 3.978514
v -3.313232 1.150504 3.977561
v -1.475911 1.169971 3.809101
v -3.527091 1.203432 3.795630
v -1.256418 1.309390 3.700089
v -3.733398 1.308359 3.700046
v -1.130783 1.562602 3.658516
v -3.857313 1.565115 3.659159
v -1.285140 1.743304 3.708782
v -3.705663 1.739298 3.705307
v -1.272727 1.505712 3.673640
v -3.713503 1.516591 3.670066
v -3.336692 1.540977 3.912724
v -1.635475 1.252361 3.804166
v -1.354790 1.291733 3.645973
v -1.324864 1.595922 3.643845
v -3.638216 1.609960 3.651629
v -1.535059 1.552532 3.754146
v -1.705627 1.355218 3.803815
v -1.786314 1.236566 3.933884
v -3.204481 1.255972 3.916373
v -3.355379 1.254488 3.800161
v -3.284836 1.363077 3.800481
v -3.645846 1.300630 3.639879
v -1.244062 1.720436 3.557017
v -3.744062 1.720436 3.557017
v -1.268188 1.233232 3.552446
v -3.722048 1.234419 3.552517
v -1.705000 1.126686 3.775767
v -3.283125 1.126686 3.775767
vn 0.1612 -0.7542 0.6365
vn 0.6073 -0.4637 0.6451
vn 0.1620 -0.4352 0.8856
vn -0.5779 -0.5008 0.6444
vn -0.1950 -0.7782 0.5970
vn -0.0230 -0.4555 0.8900
vn -0.6328 -0.0272 0.7738
vn -0.3572 -0.6672 0.6537
vn -0.3498 -0.3657 0.8625
vn 0.1601 0.3331 0.9292
vn 0.6207 0.0086 0.7840
vn 0.5143 0.4915 0.7028
vn -0.2752 0.4011 0.8737
vn 0.0424 0.7825 0.6212
vn -0.5438 0.5810 0.6055
vn 0.7673 0.0625 0.6382
vn 0.5483 0.5885 0.5942
vn 0.2952 0.4673 0.8334
vn -0.5686 -0.2302 0.7898
vn -0.7645 0.0068 0.6446
vn 0.5130 -0.2056 0.8334
vn -0.1954 0.3431 0.9188
vn 0.4019 -0.1750 0.8988
vn 0.5811 -0.3904 0.7141
vn -0.0040 -0.9591 0.2830
vn 0.7819 -0.6234 -0.0095
vn -0.5288 -0.8460 -0.0683
vn -0.4491 -0.4866 0.7493
vn -0.8840 -0.3204 0.3403
vn -0.3657 -0.3193 0.8743
vn -0.0113 -0.2586 0.9659
vn 0.0835 0.5660 0.8201
vn 0.6668 -0.6954 0.2678
vn 0.3262 -0.2473 0.9124
vn 0.3011 -0.5095 0.8060
vn 0.1870 -0.1228 0.9747
vn 0.1695 -0.0433 0.9846
vn -0.0286 -0.0348 0.9990
vn 0.2167 -0.1455 0.9653
vn -0.0427 0.0750 0.9963
vn -0.2035 -0.3761 0.9040
vn 0.1788 -0.2897 0.9403
vn -1.0000 0.0007 -0.0040
vn -0.9645 -0.2482 0.0903
vn -0.9908 0.0223 0.1337
vn 0.0805 0.9963 -0.0291
vn 0.1707 0.4973 0.8506
vn 0.0235 0.4173 0.9085
vn -0.8584 -0.0043 0.5129
vn -0.0447 -0.2708 0.9616
vn -0.6440 -0.3340 0.6882
vn 0.6128 -0.2941 0.7334
vn 0.0482 0.2086 0.9768
vn 0.7492 -0.1430 0.6467
vn 0.8260 -0.4843 0.2885
vn -0.8482 -0.4085 0.3372
vn -0.7231 -0.0978 0.6837
vn 0.3435 -0.3967 0.8513
vn 0.0285 -0.9397 0.3408
vn 0.0892 -0.1207 -0.9887
vn 0.2486 0.4335 0.8662
vn -0.2617 0.5215 0.8121
vn -0.0260 -0.1179 0.9927
vn -0.5723 0.0900 0.8151
vn 0.2880 -0.2275 0.9302
vn 0.1023 -0.2316 0.9674
vn 0.1661 0.9555 0.2437
vn 0.0217 0.8208 -0.5708
vn -0.4752 0.8730 0.1094
vn 0.8581 -0.4114 0.3074
vn 0.8937 0.4263 0.1399
vn 0.9013 0.4114 0.1356
vn 0.5243 -0.8312 -0.1850
vn -0.6320 -0.7554 -0.1730
vn -0.1249 -0.6125 -0.7806
vn 0.0288 -0.6918 -0.7215
vn -0.8645 -0.3182 -0.3892
vn -0.8666 -0.4906 0.0916
vn -0.6560 -0.4665 -0.5933
vn 0.8013 -0.4444 -0.4005
vn 0.4791 0.7937 0.3748
vn -0.0009 0.9979 -0.0647
vn -0.0325 0.8864 0.4618
vn 0.1450 0.1532 -0.9775
vn -0.0820 0.8359 -0.5428
vn 0.4377 0.8134 -0.3832
vn 0.8451 0.4714 -0.2521
vn -0.4421 0.7916 -0.4217
vn -0.8585 0.4295 -0.2802
vn -0.3749 0.8826 0.2836
vn -0.8162 0.5183 0.2554
vn -0.9892 -0.1422 -0.0350
vn 0.8947 -0.0317 0.4456
vn 0.2322 0.2963 -0.9264
vn 0.4732 -0.8401 -0.2653
vn -0.6187 -0.7815 -0.0806
vn 0.4456 -0.5929 -0.6707
vn 0.4703 -0.8527 0.2272
vn -0.5723 -0.7536 -0.3234
vn -0.4812 -0.4660 -0.7424
vn 0.0777 -0.4739 -0.8772
vn 0.5890 0.5804 0.5624
vn 0.0364 0.8427 0.5371
vn 0.2012 0.9011 0.3841
vn -0.1640 0.5649 0.8087
vn -0.8799 -0.2974 0.3706
vn -0.9935 -0.0915 0.0670
vn 0.0565 -0.0469 0.9973
vn 0.0919 0.1915 0.9772
vn 0.3411 -0.2051 0.9174
vn 0.9428 0.2918 0.1615
vn -0.5006 -0.1616 0.8505
vn -0.5784 -0.3261 0.7477
vn -0.0207 0.2450 0.9693
vn 0.1692 0.0830 0.9821
vn 0.3135 -0.0790 0.9463
vn 0.9371 0.1283 0.3247
vn 0.9728 -0.0332 0.2291
vn 0.5470 0.3158 0.7753
vn 0.7093 0.1407 0.6908
vn -0.7888 -0.0230 0.6142
vn -0.4866 0.5609 0.6698
vn -0.8712 -0.0416 0.4892
vn 0.5810 -0.3017 0.7559
vn -0.2150 -0.1654 0.9625
vn 0.5303 -0.4763 -0.7014
vn 0.5567 -0.3270 0.7637
vn -0.5593 -0.5097 -0.6538
vn 0.1442 0.7055 -0.6939
vn -0.2964 0.4982 -0.8148
vn 0.1843 -0.9209 -0.3434
vn -0.4555 0.6316 -0.6274
vn -0.5237 0.4912 0.6960
vn -0.0476 0.7891 0.6124
vn 0.3752 -0.6390 0.6715
vn -0.5202 -0.3974 0.7560
vn 0.4438 -0.0527 0.8946
vn -0.4300 -0.0113 0.9028
vn -0.8922 0.3701 0.2590
vn -0.1829 0.9669 0.1777
vn -0.2034 0.3178 0.9261
vn -0.0479 0.9345 0.3528
vn 0.1047 -0.2038 0.9734
vn -0.2216 -0.3405 0.9138
vn 0.0514 -0.2957 0.9539
vn -0.0682 0.6855 -0.7249
vn -0.2607 0.9638 -0.0556
vn 0.6598 0.0950 0.7454
vn -0.4447 -0.0393 0.8948
vn -0.7096 -0.0346 0.7037
vn 0.2651 -0.0184 0.9640
vn -0.1833 -0.0522 -0.9817
vn 0.2640 0.1507 -0.9527
vn -0.0550 -0.2769 0.9593
vn 0.3163 0.9330 0.1717
vn 0.4505 0.8920 0.0376
vn 0.5580 -0.3498 -0.7525
vn 0.0444 -0.9589 -0.2801
vn -0.5777 -0.8119 0.0844
vn -0.4938 0.1760 -0.8516
vn 0.8588 0.4252 0.2859
vn -0.8516 0.4026 0.3356
vn -0.0036 0.4776 0.8786
vn -0.0882 -0.5064 0.8578
vn 0.0536 -0.7885 -0.6127
s 1
f 5//1 3//2 7//3
f 4//4 6//5 8//6
f 13//7 11//8 9//9
f 16//10 14//11 18//12
f 22//13 20//14 24//15
f 25//16 23//17 21//18
f 2//19 22//13 26//20
f 1//21 21//18 7//3
f 9//9 7//3 21//18
f 15//22 9//9 21//18
f 16//10 8//6 10//23
f 22//13 8//6 16//10
f 2//19 8//6 22//13
f 71//24 43//25 41//26
f 45//27 55//28 47//29
f 53//30 28//31 70//32
f 44//33 56//34 54//35
f 63//36 54//35 79//37
f 73//38 52//39 28//31
f 53//30 73//38 28//31
f 80//40 73//38 53//30
f 60//41 71//24 32//42
f 31//43 62//44 61//45
f 31//46 62//47 76//48
f 66//49 30//50 75//51
f 63//36 31//46 76//48
f 74//52 63//36 76//48
f 75//51 76//48 64//53
f 74//52 76//48 30//50
f 76//48 75//51 30//50
f 65//54 39//55 63//36
f 40//56 66//49 64//53
f 77//57 60//41 32//42
f 88//58 79//37 54//35
f 80//40 89//59 55//28
f 52//39 85//60 81//61
f 53//30 82//62 94//63
f 81//61 92//64 57//65
f 88//58 86//66 79//37
f 51//67 96//68 98//69
f 46//70 99//71 48//72
f 100//73 46//70 44//33
f 47//29 101//74 45//27
f 118//75 104//76 115//77
f 42//78 104//76 43//25
f 117//79 115//77 104//76
f 7//3 9//9 11//8 5//1
f 114//80 39//55 41//26
f 40//56 115//77 42//78
f 40//56 45//27 101//74
f 122//81 103//82 102//83
f 36//84 35//85 120//86
f 127//87 120//86 122//81
f 121//88 128//89 123//90
f 47//29 124//91 106//92
f 127//87 129//93 107//94
f 114//80 130//95 39//55
f 115//77 40//56 131//96
f 107//94 113//97 36//84
f 130//95 113//97 110//98
f 119//99 131//96 112//100
f 112//100 37//101 119//99
f 142//102 132//103 129//93
f 133//104 143//105 146//106
f 143//105 141//107 145//108
f 144//109 138//110 140//111
f 139//112 137//113 157//114
f 145//108 139//112 157//114
f 149//115 144//109 142//102
f 134//116 153//117 110//98
f 153//117 105//118 110//98
f 147//119 152//120 153//117
f 156//121 155//122 154//123
f 146//106 156//121 154//123
f 153//117 129//93 105//118
f 152//120 151//124 129//93
f 150//125 156//121 146//106
f 137//113 155//122 157//114
f 147//119 151//124 152//120
f 150//125 145//108 156//121
f 155//122 156//121 145//108
f 145//108 157//114 155//122
f 144//109 149//115 151//124
f 160//126 138//110 136//127
f 139//112 161//128 137//113
f 139//112 141//107 161//128
f 140//111 158//129 142//102
f 161//128 108//130 163//131
f 160//126 107//94 158//129
f 108//130 161//128 159//132
f 140//111 160//126 158//129
f 141//107 159//132 161//128
f 146//106 108//130 133//104
f 3//2 25//16 1//21
f 2//19 26//20 4//4
f 7//3 3//2 1//21
f 2//19 4//4 8//6
f 17//133 15//22 21//18 19//134
f 8//6 6//5 12//135
f 14//11 8//6 12//135
f 10//23 8//6 14//11
f 15//22 13//7 9//9
f 10//23 14//11 16//10
f 15//22 17//133 13//7
f 18//12 20//14 22//13 16//10
f 39//55 65//54 71//24 41//26
f 21//18 23//17 19//134
f 26//20 22//13 24//15
f 1//21 25//16 21//18
f 72//136 42//78 43//25
f 72//136 66//49 40//56 42//78
f 39//55 44//33 54//35 63//36
f 55//28 45//27 40//56 64//53
f 44//33 46//70 48//72 67//137
f 55//28 68//138 49//139 47//29
f 67//137 48//72 50//140 69//141
f 69//141 50//140 27//142 28//31
f 51//67 49//139 68//138
f 51//67 68//138 70//32
f 70//32 28//31 27//142 51//67
f 28//31 52//39 59//143 69//141
f 53//30 70//32 68//138 58//144
f 59//143 57//65 67//137 69//141
f 57//65 56//34 44//33 67//137
f 68//138 55//28 58//144
f 43//25 60//41 29//145 72//136
f 64//53 80//40 55//28
f 73//38 63//36 79//37
f 80//40 64//53 73//38
f 79//37 52//39 73//38
f 43//25 71//24 60//41
f 29//145 30//50 66//49 72//136
f 32//42 71//24 65//54
f 29//145 32//42 65//54 30//50
f 27//142 50//140 95//146 33//147
f 74//52 65//54 63//36
f 64//53 66//49 75//51
f 76//48 62//47 64//53
f 31//46 63//36 62//47
f 65//54 74//52 30//50
f 63//36 73//38 62//47
f 62//47 73//38 64//53
f 60//41 77//57 78//148
f 29//145 60//41 78//148
f 32//42 78//148 77//57
f 32//42 29//145 78//148
f 53//30 84//149 80//40
f 56//34 88//58 54//35
f 55//28 89//59 83//150
f 55//28 83//150 58//144
f 59//143 81//61 57//65
f 58//144 82//62 53//30
f 52//39 81//61 59//143
f 84//149 53//30 94//63
f 82//62 58//144 93//151
f 58//144 83//150 93//151
f 57//65 92//64 56//34
f 56//34 90//152 88//58
f 89//59 91//153 83//150
f 89//59 80//40 87//154
f 86//66 52//39 79//37
f 80//40 84//149 87//154
f 27//142 33//147 34//155
f 96//68 51//67 27//142 34//155
f 97//156 50//140 48//72 99//71
f 50//140 97//156 95//146
f 98//69 124//91 49//139 51//67
f 41//26 43//25 104//76 116//157
f 47//29 49//139 124//91
f 38//158 37//101 113//97 130//95
f 42//78 117//79 104//76
f 116//157 114//80 41//26
f 42//78 115//77 117//79
f 118//75 114//80 116//157
f 116//157 104//76 118//75
f 39//55 100//73 44//33
f 38//158 130//95 114//80 118//75
f 119//99 37//101 38//158
f 115//77 119//99 38//158 118//75
f 46//70 100//73 110//98 105//118
f 111//159 101//74 47//29 106//92
f 103//82 122//81 120//86 35//85
f 36//84 113//97 37//101
f 109//160 36//84 37//101
f 123//90 102//83 103//82
f 121//88 123//90 103//82 35//85
f 109//160 121//88 35//85 36//84
f 36//84 120//86 127//87 107//94
f 128//89 121//88 109//160 108//130
f 122//81 97//156 99//71 125//161
f 125//161 127//87 122//81
f 123//90 128//89 126//162
f 124//91 98//69 123//90 126//162
f 102//83 34//155 97//156 122//81
f 102//83 123//90 98//69 34//155
f 105//118 129//93 127//87 125//161
f 95//146 97//156 33//147
f 34//155 98//69 96//68
f 97//156 34//155 33//147
f 46//70 105//118 99//71
f 125//161 99//71 105//118
f 106//92 124//91 126//162
f 128//89 146//106 106//92 126//162
f 37//101 112//100 108//130 109//160
f 128//89 108//130 146//106
f 119//99 115//77 131//96
f 130//95 110//98 100//73
f 101//74 111//159 131//96
f 39//55 130//95 100//73
f 101//74 131//96 40//56
f 136//127 148//163 147//119 134//116
f 131//96 111//159 112//100
f 142//102 144//109 140//111
f 145//108 141//107 139//112
f 142//102 129//93 151//124 149//115
f 137//113 135//164 155//122
f 148//163 136//127 138//110
f 144//109 148//163 138//110
f 150//125 143//105 145//108
f 146//106 154//123 111//159 106//92
f 150//125 146//106 143//105
f 135//164 111//159 154//123
f 147//119 153//117 134//116
f 135//164 154//123 155//122
f 129//93 153//117 152//120
f 136//127 134//116 162//165 160//126
f 147//119 144//109 151//124
f 144//109 147//119 148//163
f 163//131 135//164 137//113 161//128
f 107//94 132//103 142//102 158//129
f 138//110 160//126 140//111
f 141//107 143//105 159//132
f 108//130 159//132 143//105 133//104
f 110//98 113//97 162//165 134//116
f 160//126 162//165 107//94
f 129//93 132//103 107//94
f 162//165 113//97 107//94
f 108//130 112//100 163//131
f 163//131 112//100 111//159 135//164
