# Blender 5.1.2
# www.blender.org
mtllib suzanne_lod2_uv.mtl
o suzanne_pbr
v 0.523141 0.148400 0.520157
v -0.523141 0.148400 0.520157
v 0.349453 0.252458 0.811737
v -0.349453 0.252458 0.811737
v 0.107602 0.163714 0.637744
v -0.107602 0.163714 0.637744
v 0.400821 0.371065 0.515488
v -0.400821 0.371065 0.515488
v -0.000000 0.380905 0.736493
v 0.000000 -0.854718 0.696502
v 0.000000 -0.187500 0.796875
v -0.082730 0.708735 -0.835046
v -0.000000 -0.245694 -0.695104
v 0.258663 -0.328952 0.410769
v -0.151849 -0.169186 0.755870
v 0.386485 -0.965643 0.482006
v -0.386798 -0.963396 0.493567
v 0.759054 0.044889 0.511729
v -0.759054 0.044889 0.511729
v 0.771962 0.393128 0.498294
v -0.771962 0.393128 0.498294
v 0.241798 0.743137 0.779004
v -0.241798 0.743137 0.779004
v 0.191533 0.178320 0.757377
v -0.285107 0.387347 0.814421
v -0.317902 0.120830 0.804436
v 0.410277 0.084913 0.718469
v 0.556169 0.261356 0.680699
v -0.556169 0.261356 0.680699
v 0.305112 0.398331 0.799008
v 0.000000 -0.195313 0.750000
v 0.000000 -0.140625 0.742188
v 0.110802 -0.210532 0.783210
v -0.347624 0.965523 0.189529
v -0.174135 -0.443704 0.295115
v -0.907532 0.430687 -0.262340
v 0.891139 0.378905 -0.254396
v 0.681056 -0.094005 -0.114673
v 0.633789 -0.057359 -0.410556
v -0.633789 -0.057359 -0.410556
v 0.700361 0.804230 -0.207442
v 1.192458 0.040630 -0.469975
v -1.192458 0.040630 -0.469975
v 1.190377 0.429157 -0.438378
v -1.190377 0.429157 -0.438378
v 0.834827 0.034626 -0.310858
v -0.770769 -0.010543 -0.242049
vn -0.3437 -0.7262 -0.5954
vn -0.9149 -0.2814 -0.2895
vn -0.9033 0.3387 -0.2634
vn 0.6253 -0.7177 0.3065
vn -0.6043 -0.7485 0.2731
vn 0.9117 0.2135 -0.3510
vn 0.9467 0.1010 -0.3059
vn 0.3669 -0.6652 -0.6503
vn -0.6724 -0.6961 0.2517
vn 0.6695 -0.7354 0.1045
vn 0.4781 0.2357 0.8461
vn -0.0065 0.5080 -0.8613
vn -0.4530 -0.7666 -0.4551
vn -0.3695 -0.2852 0.8843
vn -0.7843 -0.2996 0.5432
vn 0.8052 -0.3285 0.4937
vn 0.7264 -0.6830 -0.0772
vn 0.5699 0.8073 -0.1534
vn 0.7268 0.3624 0.5834
vn -0.7866 0.2797 0.5505
vn 0.0870 0.9881 0.1265
vn 0.0695 0.3798 0.9225
vn -0.1309 0.9476 0.2915
vn -0.1757 0.9641 0.1990
vn 0.0207 -0.6920 -0.7216
vn -0.7438 -0.6545 -0.1353
vn 0.7681 -0.6273 -0.1285
vn 0.0087 -0.4718 0.8817
vn -0.6320 0.0527 0.7732
vn -0.2148 -0.2584 0.9418
vn 0.5934 0.1246 0.7952
vn -0.2061 -0.9000 -0.3840
vn -0.3523 -0.1961 0.9151
vn 0.2720 -0.2073 0.9397
vn -0.0658 -0.3108 0.9482
vn -0.0000 0.0468 -0.9989
vn -0.0000 0.9419 0.3360
vn -0.0000 -0.7452 0.6668
vn -0.0548 0.1108 0.9923
vn 0.0277 -0.1083 0.9937
vn 0.1630 0.1150 0.9799
vn -0.7941 -0.1592 0.5865
vn -0.1469 0.0739 0.9864
vn -0.4783 0.7770 0.4092
vn 0.1326 0.0590 0.9894
vn 0.7901 -0.1642 0.5906
vn 0.4783 0.7770 0.4092
vn 0.5279 -0.0412 0.8483
vn -0.5279 -0.0412 0.8483
vt 0.843617 0.534552
vt 0.783076 0.631975
vt 0.710053 0.519363
vt 0.656723 0.591050
vt 0.773575 0.796990
vt 0.694666 0.799301
vt 0.766188 0.669191
vt 0.628012 0.707047
vt 0.896965 0.506488
vt 0.573498 0.685423
vt 0.611939 0.478509
vt 0.597355 0.572643
vt 0.538440 0.817313
vt 0.533553 0.874958
vt 0.457936 0.804252
vt 0.430903 0.873895
vt 0.417041 0.751802
vt 0.758998 0.273722
vt 0.787585 0.397635
vt 0.698280 0.299742
vt 0.362362 0.441166
vt 0.326728 0.577982
vt 0.270701 0.546432
vt 0.562036 0.187828
vt 0.596909 0.118151
vt 0.728599 0.137630
vt 0.696511 0.243350
vt 0.301020 0.708546
vt 0.152355 0.689512
vt 0.268933 0.602824
vt 0.387926 0.556677
vt 0.395937 0.696409
vt 0.823513 0.149766
vt 0.943838 0.126998
vt 0.990581 0.186163
vt 0.564830 0.663320
vt 0.516264 0.719176
vt 0.887382 0.279421
vt 0.507141 0.541448
vt 0.633255 0.365329
vt 0.205677 0.480844
vt 0.106798 0.632360
vt 0.473786 0.136912
vt 0.046331 0.709495
vt 0.000000 0.671069
vt 0.017903 0.661268
vt 0.480167 0.198327
vt 0.308089 0.342602
vt 0.265292 0.402117
vt 0.275990 0.289353
vt 0.265895 0.021032
vt 0.308703 0.080930
vt 0.274206 0.110482
vt 0.179853 0.247811
vt 0.203534 0.211734
vt 0.176948 0.190709
vt 0.186479 0.211718
vt 0.427853 0.115821
vt 0.427581 0.104121
vt 0.441185 0.104121
vt 0.041750 0.212534
vt 0.014165 0.275961
vt 0.014009 0.147521
vt 0.354460 0.210034
vt 0.337295 0.288114
vt 0.291203 0.152287
vt 0.346146 0.400653
vt 0.347124 0.022718
vt 0.411219 0.284104
vt 0.340380 0.132952
vt 0.412056 0.140231
vt 0.164446 0.111110
vt 0.005315 0.784222
vt 0.066680 0.789949
vt 0.058394 0.848770
vt 0.314901 0.790881
vt 0.376460 0.787884
vt 0.320567 0.850013
vt 0.111050 0.751936
vt 0.272262 0.750935
s 1
usemtl Material_ray.png
f 40/1/1 43/2/2 36/3/3
f 43/2/2 45/4/4 36/3/3
f 44/5/5 42/6/6 37/7/7
f 42/6/6 39/8/8 37/7/7
f 40/1/1 47/9/9 43/2/2
f 38/10/10 39/8/8 42/6/6
f 47/11/9 45/4/4 43/12/2
f 42/13/6 44/14/5 46/15/11
f 36/3/3 45/4/4 47/11/9
f 44/14/5 37/16/7 46/15/11
f 37/16/7 38/17/10 46/15/11
f 38/17/10 42/13/6 46/15/11
f 36/18/3 12/19/12 40/20/1
f 12/21/12 37/22/7 39/23/8
f 35/24/13 15/25/14 19/26/15
f 35/24/13 19/26/15 47/27/9
f 18/28/16 14/29/17 38/30/10
f 37/22/7 41/31/18 20/32/19
f 36/18/3 19/26/15 21/33/20
f 18/28/16 37/22/7 20/32/19
f 23/34/21 9/35/22 21/33/20
f 9/36/22 22/37/23 20/32/19
f 21/33/20 9/35/22 34/38/24
f 9/36/22 20/32/19 34/39/24
f 20/32/19 41/31/18 34/39/24
f 21/33/20 34/38/24 36/18/3
f 36/18/3 34/38/24 12/19/12
f 12/21/12 41/31/18 37/22/7
f 34/39/24 41/31/18 12/21/12
f 40/20/1 12/19/12 13/40/25
f 12/21/12 39/23/8 13/41/25
f 47/27/9 19/26/15 36/18/3
f 18/28/16 38/30/10 37/22/7
f 35/24/13 47/27/9 13/40/25
f 13/41/25 38/30/10 14/29/17
f 13/41/25 14/29/17 35/42/13
f 47/27/9 40/20/1 13/40/25
f 39/23/8 38/30/10 13/41/25
f 35/24/13 17/43/26 15/25/14
f 16/44/27 10/45/28 17/46/26
f 35/24/13 16/47/27 17/43/26
f 35/42/13 14/29/17 16/44/27
f 29/48/29 19/49/15 26/50/30
f 18/51/16 28/52/31 27/53/32
f 15/54/14 32/55/33 26/50/30
f 32/55/33 33/56/34 26/50/30
f 11/57/35 15/54/14 33/56/34
f 15/54/14 11/57/35 32/55/33
f 11/58/36 31/59/37 32/60/38
f 11/57/35 33/56/34 32/55/33
f 10/61/28 33/56/34 15/54/14
f 10/61/28 15/54/14 17/62/26
f 33/56/34 10/61/28 16/63/27
f 26/50/30 9/64/22 25/65/39
f 24/66/40 9/64/22 26/50/30
f 24/66/40 26/50/30 33/56/34
f 19/49/15 15/54/14 26/50/30
f 24/66/40 33/56/34 18/51/16
f 24/66/40 18/51/16 27/53/32
f 21/67/20 19/49/15 29/48/29
f 18/51/16 20/68/19 28/52/31
f 23/69/21 21/67/20 25/65/39
f 21/67/20 29/48/29 25/65/39
f 28/52/31 20/68/19 30/70/41
f 20/68/19 22/71/23 30/70/41
f 23/69/21 25/65/39 9/64/22
f 24/66/40 30/70/41 9/64/22
f 30/70/41 22/71/23 9/64/22
f 14/72/17 18/51/16 33/56/34
f 14/72/17 33/56/34 16/63/27
f 2/73/42 4/74/43 8/75/44
f 3/76/45 1/77/46 7/78/47
f 8/75/44 4/74/43 6/79/48
f 3/76/45 7/78/47 5/80/49
f 6/79/48 4/74/43 2/73/42
f 3/76/45 5/80/49 1/77/46
